<svg xmlns="http://www.w3.org/2000/svg" xmlns:svg="http://www.w3.org/2000/svg" id="svg10" width="32" height="32" fill="none" version="1.1" viewBox="0 0 32 32"><circle id="circle2" cx="16" cy="16" r="16" fill="#fff"/><path id="path8" fill="#fff" d="m 13.4286,21 3.3143,-10 h 0.8285 l -3.3142,10 z" style="display:none"/><path id="path297" fill="#0fb2ef" d="M 8.5475748,22.003887 H 5.1636498 L 1.7069568,11.269931 h 3.6568176 z" style="stroke-width:.112854"/><path id="path299" fill="#0fb2ef" d="M 8.5475748,22.003887 H 5.2364184 L 8.4020267,11.269931 h 3.6750213 z" style="stroke-width:.112854"/><path id="path301" fill="#0fb2ef" d="M 13.5781,22.003887 H 11.876923 L 8.4020379,11.269931 h 3.6750101 l 3.05641,10.733956 z" style="stroke-width:.112854"/><path id="path303" fill="#0fb2ef" d="m 15.133458,22.003887 h -3.238342 l 3.111043,-10.733956 h 3.656818 z" style="stroke-width:.112854"/><path id="path305" fill="#f59122" d="m 18.726514,11.269931 h 1.701166 l 3.474896,10.733956 H 20.227588 L 17.171156,11.269931 Z" style="stroke-width:.112854"/><path id="path307" fill="#f59122" d="m 23.756994,11.269931 h 3.383937 l 3.456727,10.733956 H 26.94084 Z" style="stroke-width:.112854"/><path id="path309" fill="#f59121" d="m 23.756994,11.269931 h 3.311145 l -3.165563,10.733956 h -3.674988 z" style="stroke-width:.112854"/><path id="path311" fill="#f59121" d="m 17.171156,11.269931 h 3.238353 l -3.111054,10.733956 h -3.656818 z" style="stroke-width:.112854"/></svg>